<svg xmlns="http://www.w3.org/2000/svg" viewBox="0 0 169.4 186.57"><defs><style>.cls-1{fill:#fff;}</style></defs><title>Asset 5</title><g id="Layer_2" data-name="Layer 2"><g id="Layer_1-2" data-name="Layer 1"><path class="cls-1" d="M41.19,88.27a47,47,0,0,0,4.56-1.21C53.9,101.34,66,109.52,82.66,109.52S111.42,101.31,119.6,87c6.23,2.66,12,1.92,16.87-2.69a13.65,13.65,0,0,0,3.94-14.82c-2.74-8.48-9.07-11.51-17.6-10.58-.06-.16-.11-.26-.14-.36a41.31,41.31,0,0,0-34.47-31A39.36,39.36,0,0,0,65.28,31c-11.62,5.53-19.13,14.67-22.55,27.1-.23.85-.64.8-1.31.79A24.44,24.44,0,0,0,36,59a14.85,14.85,0,0,0,5.19,29.23Zm81.92-12.16a36.16,36.16,0,0,0,.68-10.33c-.14-1.53-.1-1.56,1.41-1.75a9.67,9.67,0,0,1,10.37,7.78,9.54,9.54,0,0,1-7.1,11,9.77,9.77,0,0,1-6.76-.79C122.2,80,122.73,78.07,123.11,76.11Zm-67-31.9A35.22,35.22,0,0,1,77,33c.21,0,.52-.15.62-.05,1.11,1,2.23,2.06,3.24,3.19.17.19,0,.95-.29,1.26a26.18,26.18,0,0,1-2.43,2.51,14.34,14.34,0,0,0-3.93,4.91A6,6,0,0,0,77.58,53a13.83,13.83,0,0,0,11-.38c3.2-1.45,4.09-5.62,1.7-7.92a5.29,5.29,0,0,0-2.58-1.25,2.28,2.28,0,0,0-2.27,3.25,11.29,11.29,0,0,0,.69,1.1v.44c-1.84,0-3.69.25-5.51.13-1.64-.11-2-1.12-.88-2.37.92-1,2-2,3-2.9A11.43,11.43,0,0,0,86,38.38c.67-2,.25-3.86-.93-6a71.21,71.21,0,0,1,7.21,1.44c13.5,4.14,22.25,13.06,25.38,26.81,2.76,12.11-.37,23-8.81,32.19A34,34,0,0,1,86,104c-13.46,1.11-24.29-3.9-32.42-14.67a33,33,0,0,1-6.65-17.23A35.4,35.4,0,0,1,56.15,44.21Zm-15.22,20a4.39,4.39,0,0,1,.61.21,58.41,58.41,0,0,0,.06,7,93.91,93.91,0,0,0,1.81,9.52c.22.93,0,1.24-.78,1.53a9.55,9.55,0,1,1-1.7-18.27Z"/><path class="cls-1" d="M54.11,24.64a2.24,2.24,0,0,0,2.49.63,3.72,3.72,0,0,0,2-2.58,8,8,0,0,0-1-1.63c-2.15-2.22-4.35-4.4-6.55-6.57a2.24,2.24,0,0,0-3.53,0,2.22,2.22,0,0,0,0,3.52C49.73,20.27,51.93,22.44,54.11,24.64Z"/><path class="cls-1" d="M111.2,24.6q3.33-3.24,6.57-6.57a7.47,7.47,0,0,0,.92-1.64,3.67,3.67,0,0,0-2-2.6,2.14,2.14,0,0,0-2.47.63q-3.28,3.28-6.56,6.58a2.25,2.25,0,0,0-.06,3.46C108.81,25.71,110,25.8,111.2,24.6Z"/><path class="cls-1" d="M80.14,11.89a2.26,2.26,0,0,0,2.37,2.3,2.29,2.29,0,0,0,2.64-2c.07-3.35.07-6.71,0-10.06a2.53,2.53,0,0,0-5,.18c0,1.6,0,3.21,0,4.81S80.12,10.28,80.14,11.89Z"/><path class="cls-1" d="M58.58,69.3c.41-.22.79-.52,1.19-.76a3.58,3.58,0,0,1,4.61.3,3,3,0,0,0,1.12.62,1.87,1.87,0,0,0,2.14-1,1.73,1.73,0,0,0-.34-2.2A7.63,7.63,0,0,0,61.51,64a8,8,0,0,0-5.19,2.31,1.86,1.86,0,0,0-.2,2.49A2,2,0,0,0,58.58,69.3Z"/><path class="cls-1" d="M99.47,69.3c.42-.22.79-.52,1.2-.76a3.56,3.56,0,0,1,4.6.3,3.15,3.15,0,0,0,1.13.62,1.85,1.85,0,0,0,2.13-1,1.73,1.73,0,0,0-.33-2.2A7.66,7.66,0,0,0,102.41,64a8,8,0,0,0-5.19,2.31,1.86,1.86,0,0,0-.2,2.49A2,2,0,0,0,99.47,69.3Z"/><path class="cls-1" d="M75,92.24a14.07,14.07,0,0,0,16.11-.48c5.27-3.58,7.51-8.82,7.74-15.16H66.49C66.8,83.31,69.25,88.77,75,92.24Zm7.94-10.43c3.52,0,6.39,3.3,6.27,7.23H76.11A6.87,6.87,0,0,1,82.93,81.81Z"/><path class="cls-1" d="M12.63,151.16a1.85,1.85,0,0,0,.66-2.81,1.21,1.21,0,0,0-1-.49,3,3,0,0,0-.84.16,3.25,3.25,0,0,1-.83.15c-1.32,0-2-.73-2-2.2V132.86h3.65a1.94,1.94,0,0,0,1.39-.53,1.83,1.83,0,0,0,.55-1.36,1.92,1.92,0,0,0-.55-1.39,1.88,1.88,0,0,0-1.39-.55H8.67v-3.7a2.06,2.06,0,0,0-.6-1.49,2,2,0,0,0-1.47-.62,2,2,0,0,0-1.52.62,2.09,2.09,0,0,0-.59,1.49V129H1.94a1.94,1.94,0,0,0-1.39.53A1.79,1.79,0,0,0,0,130.92a1.88,1.88,0,0,0,1.94,1.94H4.49v13.29a6.27,6.27,0,0,0,.94,3.8,3.89,3.89,0,0,0,2.16,1.56,10.55,10.55,0,0,0,2.66.31A4.42,4.42,0,0,0,12.63,151.16Z"/><path class="cls-1" d="M23.1,149.71V130.66a2.1,2.1,0,0,0-.59-1.5,2,2,0,0,0-1.52-.61,2,2,0,0,0-1.48.61,2.1,2.1,0,0,0-.59,1.5v19.05a2.1,2.1,0,0,0,.59,1.5,2,2,0,0,0,1.48.61,2,2,0,0,0,1.52-.61A2.1,2.1,0,0,0,23.1,149.71Z"/><path class="cls-1" d="M21,125.64a2.91,2.91,0,0,0,1.8-.44,1.77,1.77,0,0,0,.57-1.49V123a1.81,1.81,0,0,0-.55-1.47,2.73,2.73,0,0,0-1.78-.46,3,3,0,0,0-1.82.44,1.72,1.72,0,0,0-.6,1.49v.71a1.81,1.81,0,0,0,.55,1.47A2.86,2.86,0,0,0,21,125.64Z"/><path class="cls-1" d="M44.61,137.79v11.92a2.07,2.07,0,0,0,.6,1.5,2,2,0,0,0,1.47.61,2,2,0,0,0,1.52-.61,2.06,2.06,0,0,0,.59-1.5v-12q0-9.5-7.91-9.5a8.41,8.41,0,0,0-4.38,1.21,9.44,9.44,0,0,0-3.19,3v-1.54a2.07,2.07,0,0,0-.6-1.5,2,2,0,0,0-1.52-.61,2,2,0,0,0-1.47.61,2.06,2.06,0,0,0-.59,1.5v18.83a2.11,2.11,0,0,0,.57,1.52,2.19,2.19,0,0,0,3,0,2.07,2.07,0,0,0,.6-1.5V137.79a5.24,5.24,0,0,1,.81-2.84,5.81,5.81,0,0,1,2.24-2.07,6.69,6.69,0,0,1,3.19-.77,4.6,4.6,0,0,1,3.88,1.54A6.63,6.63,0,0,1,44.61,137.79Z"/><path class="cls-1" d="M74.09,149.67v-19a2.06,2.06,0,0,0-.59-1.5,2,2,0,0,0-1.52-.61,2,2,0,0,0-1.49.59,2.07,2.07,0,0,0-.58,1.52v12.05a5.48,5.48,0,0,1-1.62,4.1,5.73,5.73,0,0,1-4.14,1.58A5,5,0,0,1,60.28,147,6.16,6.16,0,0,1,59,142.71V130.66a2.1,2.1,0,0,0-.59-1.5,2,2,0,0,0-1.52-.61,2,2,0,0,0-1.5.59,2.11,2.11,0,0,0-.57,1.52v13.15a8.9,8.9,0,0,0,2,6.12,7.15,7.15,0,0,0,5.7,2.33,9.94,9.94,0,0,0,4.29-.88,8,8,0,0,0,3-2.46v.88q0,7-6.82,7a7.65,7.65,0,0,1-2.46-.35,23,23,0,0,1-2.42-1,1.8,1.8,0,0,0-.66-.13,1.66,1.66,0,0,0-1.1.4,2.53,2.53,0,0,0-.75,1.14,2.5,2.5,0,0,0-.09.57c0,.86.55,1.53,1.63,2a9.58,9.58,0,0,0,2.6.83,16.33,16.33,0,0,0,3.21.31,11.53,11.53,0,0,0,8-2.73C73.08,156.08,74.09,153.33,74.09,149.67Z"/><path class="cls-1" d="M102.69,151.16a1.88,1.88,0,0,0,1.06-1.58,1.84,1.84,0,0,0-.4-1.23,1.18,1.18,0,0,0-1-.49,2.94,2.94,0,0,0-.84.16,3.24,3.24,0,0,1-.84.15c-1.32,0-2-.73-2-2.2V132.86h3.66a1.92,1.92,0,0,0,1.38-.53,1.79,1.79,0,0,0,.55-1.36,1.88,1.88,0,0,0-.55-1.39,1.85,1.85,0,0,0-1.38-.55H98.73v-3.7a2.05,2.05,0,0,0-.59-1.49,2,2,0,0,0-1.47-.62,2,2,0,0,0-1.52.62,2.06,2.06,0,0,0-.6,1.49V129H92a1.9,1.9,0,0,0-1.38.53,1.79,1.79,0,0,0-.55,1.36,1.88,1.88,0,0,0,.55,1.39,1.84,1.84,0,0,0,1.38.55h2.55v13.29a6.27,6.27,0,0,0,1,3.8,3.89,3.89,0,0,0,2.16,1.56,10.5,10.5,0,0,0,2.66.31A4.36,4.36,0,0,0,102.69,151.16Z"/><path class="cls-1" d="M129.27,146.45a12.25,12.25,0,0,0,1.54-6.16,12.53,12.53,0,0,0-1.54-6.2,11.16,11.16,0,0,0-4.2-4.31,12,12,0,0,0-11.75,0,11,11,0,0,0-4.2,4.31,12.53,12.53,0,0,0-1.54,6.2,12.25,12.25,0,0,0,1.54,6.16,11,11,0,0,0,4.2,4.27,12,12,0,0,0,11.75,0A11.19,11.19,0,0,0,129.27,146.45Zm-3.63-2a7.41,7.41,0,0,1-2.68,2.89,7.4,7.4,0,0,1-7.53,0,7.34,7.34,0,0,1-2.68-2.89,8.69,8.69,0,0,1-1-4.18,8.93,8.93,0,0,1,1-4.24,7.33,7.33,0,0,1,2.68-2.91,7.4,7.4,0,0,1,7.53,0,7.4,7.4,0,0,1,2.68,2.91,8.93,8.93,0,0,1,1,4.24A8.69,8.69,0,0,1,125.64,144.47Z"/><path class="cls-1" d="M145.55,129H141.9v-3.7a2.06,2.06,0,0,0-.6-1.49,2,2,0,0,0-1.47-.62,2,2,0,0,0-1.52.62,2.09,2.09,0,0,0-.59,1.49V129h-2.55a1.94,1.94,0,0,0-1.39.53,1.79,1.79,0,0,0-.55,1.36,1.88,1.88,0,0,0,1.94,1.94h2.55v13.29a6.27,6.27,0,0,0,.94,3.8,3.89,3.89,0,0,0,2.16,1.56,10.55,10.55,0,0,0,2.66.31,4.42,4.42,0,0,0,2.38-.66,1.85,1.85,0,0,0,.66-2.81,1.21,1.21,0,0,0-1-.49,3,3,0,0,0-.84.16,3.25,3.25,0,0,1-.83.15c-1.32,0-2-.73-2-2.2V132.86h3.65a1.94,1.94,0,0,0,1.39-.53,1.83,1.83,0,0,0,.55-1.36,1.92,1.92,0,0,0-.55-1.39A1.88,1.88,0,0,0,145.55,129Z"/><path class="cls-1" d="M168.34,141.9a6.8,6.8,0,0,0-2.59-2.09,24.46,24.46,0,0,0-3.88-1.32,17.1,17.1,0,0,1-4-1.45,2.57,2.57,0,0,1-1.34-2.29,2.48,2.48,0,0,1,1.16-2.31,5.61,5.61,0,0,1,2.84-.68,7.49,7.49,0,0,1,3,.57,6.12,6.12,0,0,1,2.27,1.63,1.66,1.66,0,0,0,1.28.53,1.63,1.63,0,0,0,1.1-.4,1.91,1.91,0,0,0,.7-1.36,2,2,0,0,0-.53-1.28,8,8,0,0,0-3.41-2.42,11.7,11.7,0,0,0-4.2-.79,10,10,0,0,0-4.07.83,7.46,7.46,0,0,0-3,2.34,6.14,6.14,0,0,0,0,7.1,7.21,7.21,0,0,0,2.75,2.11,27.16,27.16,0,0,0,4.09,1.39,14.84,14.84,0,0,1,3.81,1.45,2.53,2.53,0,0,1,1.29,2.29,2.48,2.48,0,0,1-1.27,2.35,6,6,0,0,1-3,.77,8.11,8.11,0,0,1-3.63-.74,9.33,9.33,0,0,1-2.84-2.25,2,2,0,0,0-1.45-.66,1.75,1.75,0,0,0-1,.31,1.78,1.78,0,0,0-.93,1.5,2.22,2.22,0,0,0,.4,1.18,9.46,9.46,0,0,0,4,3.08,13.28,13.28,0,0,0,5.13,1,10.38,10.38,0,0,0,4.07-.81,7.67,7.67,0,0,0,3.1-2.33,5.68,5.68,0,0,0,1.19-3.59A5.84,5.84,0,0,0,168.34,141.9Z"/><path class="cls-1" d="M17.92,181.6a.65.65,0,0,0-.61.28,3.28,3.28,0,0,1-1.23,1.63,3.48,3.48,0,0,1-2.12.67,3,3,0,0,1-1.31-.31,3.57,3.57,0,0,1-1.18-.89,4.7,4.7,0,0,1-.86-1.43,5.22,5.22,0,0,1-.33-1.92,6,6,0,0,1,.25-1.64,5.38,5.38,0,0,1,.73-1.55,4.13,4.13,0,0,1,1.17-1.15,2.91,2.91,0,0,1,1.58-.44,3.66,3.66,0,0,1,2.84,1.4.45.45,0,0,0,.42.22,1,1,0,0,0,.63-.25.75.75,0,0,0,.31-.6,1.08,1.08,0,0,0-.15-.49,3.6,3.6,0,0,0-.77-.89,4.61,4.61,0,0,0-1-.67,5.16,5.16,0,0,0-1.16-.41,5.44,5.44,0,0,0-1.19-.14,4.55,4.55,0,0,0-2.39.62,5.82,5.82,0,0,0-1.73,1.58,7.09,7.09,0,0,0-1,2.14,8,8,0,0,0-.35,2.27,6.77,6.77,0,0,0,.51,2.72,6.63,6.63,0,0,0,1.3,2A5.68,5.68,0,0,0,12,185.5a4.57,4.57,0,0,0,1.79.41,6.73,6.73,0,0,0,1.26-.14,5.34,5.34,0,0,0,1.37-.48,5.73,5.73,0,0,0,1.29-.91,4.65,4.65,0,0,0,1-1.47c0-.08,0-.15,0-.21a1.15,1.15,0,0,0,0-.19.85.85,0,0,0-.25-.7A.81.81,0,0,0,17.92,181.6Z"/><path class="cls-1" d="M30.44,177.71c0-.49-.06-.92-.09-1.31s-.09-.71-.13-.94,0-.3-.11-.65a7.74,7.74,0,0,0-.26-1.12,3.62,3.62,0,0,0-.49-1.07,1,1,0,0,0-.81-.47,1.1,1.1,0,0,0-.68.25.79.79,0,0,0-.3.64.67.67,0,0,0,.07.31,13.66,13.66,0,0,1,.53,1.55c.11.45.21.89.28,1.32s.12.88.15,1.36.07,1,.12,1.63c-.36,0-.75,0-1.15.06s-.81,0-1.22,0l-2.18.07q-.08-.8-.12-1.5a8.17,8.17,0,0,0-.16-1.24,6.5,6.5,0,0,0-.27-.91,6,6,0,0,0-.42-.92,3.68,3.68,0,0,0-.54-.7.91.91,0,0,0-.65-.28.86.86,0,0,0-.65.27.87.87,0,0,0-.26.62.69.69,0,0,0,.16.47c.13.2.24.39.34.57a3.06,3.06,0,0,1,.23.5l.28.9a9.08,9.08,0,0,1,.24,1.57c0,.56.06,1.15.06,1.78,0,.84,0,1.69-.08,2.55s-.08,1.69-.08,2.49a.61.61,0,0,0,.23.52.91.91,0,0,0,.56.18,1,1,0,0,0,.61-.22.89.89,0,0,0,.33-.62c.06-.63.12-1.32.15-2.07s.06-1.5.06-2.25l2.23-.07,1.25,0c.42,0,.79,0,1.12-.06,0,.86,0,1.69-.09,2.51s-.08,1.57-.08,2.29a.63.63,0,0,0,.31.57,1.21,1.21,0,0,0,.63.18.88.88,0,0,0,.5-.17.77.77,0,0,0,.3-.58c.06-.64.1-1.38.13-2.22s0-1.71,0-2.6c0-.57,0-1.12,0-1.66S30.46,178.19,30.44,177.71Z"/><path class="cls-1" d="M37.17,175.18l-.37-.79c-.15-.32-.31-.63-.49-.94a4.42,4.42,0,0,0-.59-.78.89.89,0,0,0-.64-.33,1.09,1.09,0,0,0-.68.26.75.75,0,0,0-.33.61.82.82,0,0,0,.19.47,10.47,10.47,0,0,1,.63,1c.19.35.35.67.49,1,0,.7.08,1.5.1,2.39s0,1.79,0,2.69,0,1.87-.08,2.74-.08,1.64-.08,2.3a.67.67,0,0,0,.31.59,1.27,1.27,0,0,0,.72.21.88.88,0,0,0,.5-.17.73.73,0,0,0,.3-.54c.07-.59.13-1.32.16-2.2s.05-1.8.05-2.79,0-2-.06-3S37.23,176,37.17,175.18Z"/><path class="cls-1" d="M48.73,184.32l-.82,0-1,.08-1,.09-1,0-.9,0c-.28,0-.5,0-.67-.07,0-.21,0-.5,0-.88s0-.83,0-1.33c0-.71,0-1.51,0-2.39s-.05-1.72-.07-2.54,0-1.56-.06-2.21,0-1.12,0-1.39a1.35,1.35,0,0,0-.54-.59,1.34,1.34,0,0,0-.7-.2,1.54,1.54,0,0,0-.65.13.58.58,0,0,0-.36.34.44.44,0,0,0,0,.18,1.14,1.14,0,0,0,.17.62,5.85,5.85,0,0,0,.37.55c0,.24,0,.67,0,1.31s0,1.34,0,2.14,0,1.62,0,2.46,0,1.59,0,2.25,0,1.18,0,1.51,0,.55,0,.65a.85.85,0,0,0,.22.61,1.57,1.57,0,0,0,.61.36,4.28,4.28,0,0,0,.92.18c.36,0,.75,0,1.15,0l1.16,0,1.23-.07,1.19-.11,1-.1a.58.58,0,0,0,.35-.28.94.94,0,0,0,.12-.47,1.06,1.06,0,0,0-.2-.61A.61.61,0,0,0,48.73,184.32Z"/><path class="cls-1" d="M61.42,175.05a4.78,4.78,0,0,0-1.65-1.43,5.09,5.09,0,0,0-2.47-.55,5.7,5.7,0,0,0-1.3.15,6.37,6.37,0,0,0-1.21.41.57.57,0,0,0-.34-.28,1.44,1.44,0,0,0-.5-.1,1.22,1.22,0,0,0-.6.16.46.46,0,0,0-.27.41c0,.79.06,1.58.08,2.34s0,1.52,0,2.27c0,1.07,0,2.11-.08,3.15s-.1,2.08-.18,3.16v.12a.57.57,0,0,0,.29.57,1.47,1.47,0,0,0,.62.13,9.21,9.21,0,0,0,2.46.3h.59l.44,0a5,5,0,0,0,2-.57A5.53,5.53,0,0,0,61,183.91a6.81,6.81,0,0,0,1.19-2,7.17,7.17,0,0,0,.46-2.64,8.75,8.75,0,0,0-.29-2.2A6,6,0,0,0,61.42,175.05Zm-1,6.72a4.09,4.09,0,0,1-1.12,1.39,4.5,4.5,0,0,1-1.49.77,5.42,5.42,0,0,1-1.53.25,7,7,0,0,1-1.55-.17q0-.87.06-1.65t.06-1.53l0-1.49c0-.5,0-1,0-1.54,0-.36,0-.72,0-1.08s0-.74,0-1.14a3.07,3.07,0,0,1,1.12-.64,4,4,0,0,1,1.11-.16,3.45,3.45,0,0,1,1.72.4A3.32,3.32,0,0,1,60,176.24a4.58,4.58,0,0,1,.67,1.56,8.21,8.21,0,0,1,.21,1.88A4.45,4.45,0,0,1,60.41,181.77Z"/><path class="cls-1" d="M73.7,179.35a4.86,4.86,0,0,0,.44-1.1,4.62,4.62,0,0,0,.14-1.06,6.68,6.68,0,0,0-.31-1.65,4.19,4.19,0,0,0-.78-1.44,3.93,3.93,0,0,0-1.36-1,4.84,4.84,0,0,0-2-.39,3.47,3.47,0,0,0-1.53.33,5.36,5.36,0,0,0-1.22.8c-.07-.14-.16-.3-.26-.46l-.33-.48a2,2,0,0,0-.38-.39.7.7,0,0,0-.43-.15,1.09,1.09,0,0,0-.68.26.75.75,0,0,0-.33.61.82.82,0,0,0,.19.47,10.47,10.47,0,0,1,.63,1c.19.35.35.67.49,1,0,.7.08,1.5.1,2.39s0,1.79,0,2.69,0,1.87-.08,2.74-.08,1.64-.08,2.3a.67.67,0,0,0,.31.59,1.27,1.27,0,0,0,.72.21.83.83,0,0,0,.5-.18.71.71,0,0,0,.29-.53,20.23,20.23,0,0,0,.17-2.11c0-.84.05-1.73.05-2.67a4.06,4.06,0,0,0,1.92.42,6,6,0,0,1,1.71,1.86,10.68,10.68,0,0,1,1,2.55.41.41,0,0,0,.23.28,1,1,0,0,0,.4.1,1.34,1.34,0,0,0,.72-.2.65.65,0,0,0,.31-.58.19.19,0,0,0,0-.08.19.19,0,0,1,0-.08,9.69,9.69,0,0,0-1-2.43,8,8,0,0,0-1.37-1.81,3.75,3.75,0,0,0,1-.77A4.13,4.13,0,0,0,73.7,179.35Zm-1.37-1.49a3.05,3.05,0,0,1-.4.95,2.24,2.24,0,0,1-.75.75,2.12,2.12,0,0,1-1.17.3,4.3,4.3,0,0,1-1.21-.15,2.31,2.31,0,0,1-.9-.53q0-.93-.06-1.86c0-.62-.06-1.21-.1-1.77a2.7,2.7,0,0,1,.84-.77,2.66,2.66,0,0,1,1.34-.31,2.34,2.34,0,0,1,1.09.24,2.47,2.47,0,0,1,.76.58,2.68,2.68,0,0,1,.47.8,3.66,3.66,0,0,1,.21.87A4,4,0,0,1,72.33,177.86Z"/><path class="cls-1" d="M84.13,184.08c-.26,0-.62,0-1.06.06h-3c-.52,0-1,0-1.4-.06,0-.67,0-1.46.06-2.38s0-1.86,0-2.84c0-.68,0-1.34,0-2s0-1.3,0-1.91l1.35.05,1.25,0h1.24l1.27,0a.84.84,0,0,0,.54-.77,1,1,0,0,0-.13-.51.81.81,0,0,0-.41-.36H79.91c-.4,0-.79,0-1.15,0a8.2,8.2,0,0,0-.93-.05,1.33,1.33,0,0,0-.6.14.48.48,0,0,0-.27.47c0,.5,0,1.09.05,1.78s0,1.43,0,2.23c0,.62,0,1.26,0,1.91s0,1.27,0,1.88,0,1.19-.08,1.72,0,1,0,1.42a.76.76,0,0,0,.24.61.93.93,0,0,0,.62.21h.17l1.79.07c.62,0,1.21,0,1.77,0H83l1.1,0a.66.66,0,0,0,.47-.27.84.84,0,0,0,.19-.53,1,1,0,0,0-.15-.52A.65.65,0,0,0,84.13,184.08Z"/><path class="cls-1" d="M84.13,178.6H82.19c-.64,0-1.34,0-2.09,0a.44.44,0,0,0-.43.25,1.12,1.12,0,0,0-.13.55,1.13,1.13,0,0,0,.13.54.39.39,0,0,0,.34.26l2.11.07,1.11,0h.9a.65.65,0,0,0,.38-.32,1.07,1.07,0,0,0,.14-.52,1.14,1.14,0,0,0-.12-.52A.5.5,0,0,0,84.13,178.6Z"/><path class="cls-1" d="M96.75,173.11a.64.64,0,0,0-.35-.37,1.25,1.25,0,0,0-.54-.12,1.11,1.11,0,0,0-.58.15.48.48,0,0,0-.26.44q0,1,.06,2.19c0,.76,0,1.53,0,2.31,0,1.58,0,3.09-.07,4.54-.49-.73-1-1.52-1.56-2.36s-1.09-1.66-1.61-2.45-1-1.51-1.37-2.16a16.79,16.79,0,0,1-.85-1.51l-.07-.09a5.56,5.56,0,0,0-.56-.47,1.15,1.15,0,0,0-.66-.17c-.66,0-1,.21-1,.64a.65.65,0,0,0,.22.52,2.76,2.76,0,0,1,.37.46c0,.5.07,1.15.07,2,0,.45,0,.93,0,1.43s0,1-.06,1.54l-.28,5.35a.74.74,0,0,0,.22.59.8.8,0,0,0,.58.2,1.14,1.14,0,0,0,.58-.17.76.76,0,0,0,.35-.53c0-.37.09-.84.13-1.39s.08-1.18.11-1.86.05-1.4.07-2.16,0-1.53,0-2.3c.38.58.78,1.2,1.22,1.86l1.35,2c.46.69.92,1.38,1.38,2.09s.9,1.39,1.3,2.06a.9.9,0,0,0,.38.36,1,1,0,0,0,.44.08.88.88,0,0,0,.51-.18.89.89,0,0,0,.31-.59c0-1.08.08-2.08.13-3s.08-1.86.08-2.8,0-1.9,0-2.87S96.78,174.29,96.75,173.11Z"/><path class="cls-1" d="M106.23,180.57a5.3,5.3,0,0,0-1.49-1.17c-.58-.33-1.14-.65-1.68-.94a9.31,9.31,0,0,1-1.39-.93,1.44,1.44,0,0,1-.57-1.13,2.06,2.06,0,0,1,.18-.9,1.77,1.77,0,0,1,.45-.62,2,2,0,0,1,.61-.37,2,2,0,0,1,.66-.15,3.11,3.11,0,0,1,1.3.28,2.41,2.41,0,0,1,1,.82.51.51,0,0,0,.45.23,1.22,1.22,0,0,0,.62-.22.71.71,0,0,0,.36-.64.25.25,0,0,0,0-.09s0-.05,0-.08a3.23,3.23,0,0,0-.57-.83,3.66,3.66,0,0,0-.85-.66,4.45,4.45,0,0,0-1-.42,4.24,4.24,0,0,0-1.11-.15,4.66,4.66,0,0,0-1.27.19,3.43,3.43,0,0,0-1.25.63,3.72,3.72,0,0,0-1,1.17,3.82,3.82,0,0,0-.39,1.81,3,3,0,0,0,.18,1,2.29,2.29,0,0,0,.64,1,7.86,7.86,0,0,0,1.35,1.18c.41.26.81.49,1.18.68l.8.39a5.59,5.59,0,0,1,.89.57,4,4,0,0,1,.73.75,1.61,1.61,0,0,1,.3,1,1.7,1.7,0,0,1-.65,1.4,2.67,2.67,0,0,1-1.72.52,3.83,3.83,0,0,1-1.07-.19,5,5,0,0,1-1.57-.87.75.75,0,0,0-.24-.07.59.59,0,0,0-.5.34,1.36,1.36,0,0,0-.2.67.9.9,0,0,0,.32.65,3.26,3.26,0,0,0,.83.58,5.27,5.27,0,0,0,1.18.44,5.7,5.7,0,0,0,1.37.16,7,7,0,0,0,1.28-.14,4.06,4.06,0,0,0,1.34-.52,3.32,3.32,0,0,0,1.05-1,3,3,0,0,0,.43-1.71,4.16,4.16,0,0,0-.22-1.29A3.54,3.54,0,0,0,106.23,180.57Z"/><path class="cls-1" d="M123.38,173.63a.75.75,0,0,0-.78.7q-.18.87-.45,2c-.18.75-.37,1.51-.58,2.29s-.41,1.56-.62,2.33-.42,1.48-.62,2.12c-.28-.7-.55-1.47-.81-2.3s-.52-1.66-.78-2.5c-.19-.63-.36-1.23-.52-1.8s-.31-1.07-.46-1.52a4.73,4.73,0,0,0-.47-1.07.7.7,0,0,0-.59-.39,1.2,1.2,0,0,0-.57.14.79.79,0,0,0-.37.58l-.46,1.94c-.18.74-.37,1.51-.57,2.3s-.41,1.59-.62,2.38-.42,1.52-.62,2.17c-.24-.67-.48-1.41-.74-2.23s-.5-1.61-.72-2.41c-.18-.62-.34-1.21-.47-1.76s-.25-1-.38-1.43a5.66,5.66,0,0,0-.42-1,.65.65,0,0,0-.53-.35,1,1,0,0,0-.68.26.78.78,0,0,0-.28.61.92.92,0,0,0,0,.19l.63,2.39c.21.76.43,1.57.67,2.41s.49,1.66.74,2.44.49,1.49.73,2.12a12.49,12.49,0,0,0,.61,1.46.75.75,0,0,0,.44.45,1.65,1.65,0,0,0,.47.09.65.65,0,0,0,.36-.1.86.86,0,0,0,.32-.39,10,10,0,0,0,.54-1.38c.2-.61.42-1.29.64-2s.46-1.54.68-2.37.44-1.62.62-2.37c.22.75.46,1.54.71,2.36s.5,1.61.75,2.36.49,1.42.71,2a11.9,11.9,0,0,0,.6,1.37.67.67,0,0,0,.45.45,1.72,1.72,0,0,0,.46.09.75.75,0,0,0,.68-.49,9,9,0,0,0,.57-1.32c.2-.57.41-1.21.63-1.9s.43-1.43.64-2.19.41-1.52.59-2.24.34-1.4.47-2,.23-1.13.29-1.53v-.12a.73.73,0,0,0-.29-.6A1,1,0,0,0,123.38,173.63Z"/><path class="cls-1" d="M134.1,184.08c-.27,0-.62,0-1.07.06h-3c-.53,0-1,0-1.4-.06,0-.67,0-1.46.06-2.38s0-1.86,0-2.84c0-.68,0-1.34,0-2s0-1.3,0-1.91l1.35.05,1.25,0h1.24l1.27,0a.84.84,0,0,0,.37-.29.8.8,0,0,0,.17-.48,1.17,1.17,0,0,0-.13-.51.85.85,0,0,0-.41-.36h-3.94c-.41,0-.79,0-1.15,0a8.36,8.36,0,0,0-.94-.05,1.31,1.31,0,0,0-.59.14.48.48,0,0,0-.27.47c0,.5,0,1.09,0,1.78s0,1.43,0,2.23c0,.62,0,1.26,0,1.91s0,1.27-.05,1.88,0,1.19-.07,1.72,0,1-.06,1.42a.77.77,0,0,0,.25.61.91.91,0,0,0,.62.21h.16l1.8.07c.61,0,1.2,0,1.77,0H133l1.1,0a.66.66,0,0,0,.47-.27.84.84,0,0,0,.19-.53,1,1,0,0,0-.15-.52A.68.68,0,0,0,134.1,184.08Z"/><path class="cls-1" d="M132.15,178.6c-.64,0-1.33,0-2.08,0a.45.45,0,0,0-.44.25,1.24,1.24,0,0,0-.13.55,1.26,1.26,0,0,0,.13.54c.09.17.2.26.34.26l2.11.07,1.12,0h.9a.64.64,0,0,0,.37-.32,1,1,0,0,0,.14-.52,1.13,1.13,0,0,0-.11-.52.5.5,0,0,0-.4-.28Z"/><path class="cls-1" d="M146.3,185.21c-.33-1.55-.7-3.08-1.1-4.6s-.81-2.87-1.21-4.07a25.18,25.18,0,0,0-1.14-2.93c-.36-.75-.67-1.13-.93-1.13a2,2,0,0,0-.54.08.81.81,0,0,0-.47.41,10.17,10.17,0,0,0-.44,1c-.16.41-.34.88-.52,1.41s-.39,1.11-.59,1.73-.4,1.24-.59,1.86l-1.94,6.26a1.65,1.65,0,0,0-.05.23.74.74,0,0,0,.3.58,1,1,0,0,0,.62.24.84.84,0,0,0,.48-.14.89.89,0,0,0,.34-.54c.11-.39.26-.9.47-1.54l.68-2.16c.21,0,.44,0,.66,0l.72,0c.48,0,.95,0,1.42,0s.86,0,1.2-.08c.17.75.35,1.45.54,2.11a16.67,16.67,0,0,1,.4,1.66.86.86,0,0,0,.26.53.67.67,0,0,0,.44.15A1,1,0,0,0,146,186a.8.8,0,0,0,.3-.63.19.19,0,0,0,0-.08A.19.19,0,0,1,146.3,185.21Zm-5-5h-1.1c.27-.84.54-1.69.82-2.53s.55-1.6.8-2.28c.22.68.45,1.43.7,2.25s.49,1.67.73,2.51C142.63,180.24,142,180.26,141.28,180.26Z"/><path class="cls-1" d="M157,179.35a4.86,4.86,0,0,0,.44-1.1,4.62,4.62,0,0,0,.14-1.06,6.25,6.25,0,0,0-.31-1.65,4.19,4.19,0,0,0-.78-1.44,3.93,3.93,0,0,0-1.36-1,4.84,4.84,0,0,0-2.05-.39,3.43,3.43,0,0,0-1.52.33,5.15,5.15,0,0,0-1.22.8c-.08-.14-.17-.3-.27-.46s-.21-.32-.33-.48a1.77,1.77,0,0,0-.38-.39.68.68,0,0,0-.43-.15,1.12,1.12,0,0,0-.68.26.75.75,0,0,0-.33.61.82.82,0,0,0,.19.47,8.8,8.8,0,0,1,.63,1c.19.35.35.67.49,1,0,.7.08,1.5.1,2.39s0,1.79,0,2.69,0,1.87-.08,2.74-.08,1.64-.08,2.3a.67.67,0,0,0,.31.59,1.29,1.29,0,0,0,.72.21.83.83,0,0,0,.5-.18.75.75,0,0,0,.3-.53c.07-.56.13-1.26.16-2.11s.05-1.73.05-2.67a4.06,4.06,0,0,0,1.92.42,6,6,0,0,1,1.71,1.86,10.28,10.28,0,0,1,1,2.55.4.4,0,0,0,.24.28.87.87,0,0,0,.39.1,1.34,1.34,0,0,0,.72-.2.66.66,0,0,0,.32-.58.19.19,0,0,0,0-.08s0-.05,0-.08a9.32,9.32,0,0,0-.95-2.43,8,8,0,0,0-1.37-1.81,4,4,0,0,0,1.06-.77A4.37,4.37,0,0,0,157,179.35Zm-1.37-1.49a2.83,2.83,0,0,1-.4.95,2.24,2.24,0,0,1-.75.75,2.12,2.12,0,0,1-1.17.3,4.18,4.18,0,0,1-1.2-.15,2.27,2.27,0,0,1-.91-.53q0-.93-.06-1.86c0-.62-.05-1.21-.1-1.77a2.7,2.7,0,0,1,.84-.77,2.66,2.66,0,0,1,1.34-.31,2.34,2.34,0,0,1,1.09.24,2.47,2.47,0,0,1,.76.58,2.68,2.68,0,0,1,.47.8,3.66,3.66,0,0,1,.21.87A4,4,0,0,1,155.61,177.86Z"/></g></g></svg>