<svg xmlns="http://www.w3.org/2000/svg" xmlns:xlink="http://www.w3.org/1999/xlink" viewBox="0 0 1825.47 1014.38"><defs><style>.cls-1{fill:none;}.cls-2{fill:#fff;}.cls-3{opacity:0.24;fill:url(#New_Pattern);}</style><pattern id="New_Pattern" data-name="New Pattern" width="1170.91" height="1463.17" patternTransform="translate(2882.89 -67.66) scale(0.27)" patternUnits="userSpaceOnUse" viewBox="0 0 1170.91 1463.17"><rect class="cls-1" width="1170.91" height="1463.17"/><path class="cls-2" d="M989.65,437.2a91.31,91.31,0,0,0-6.5,7.25A359.65,359.65,0,0,1,908.9,512c-18.48,12.51-37.12,24.78-55.54,37.37a43.39,43.39,0,0,0-9.84,9.08c-6.55,8.48-10,18-7.45,28.93,1.72,7.39,6.06,13.21,11.33,18.47q37.36,37.39,74.7,74.83c1.94,1.95,4,3.8,6.08,5.57,3.87,3.26,8.25,5.83,13.24,6.66,15.68,2.58,28.38-3,37.4-15.71,10.77-15.12,20.9-30.7,31-46.28a378.55,378.55,0,0,1,75.6-85.67,61.79,61.79,0,0,0,7.63-7.18c5.75-6.76,7.56-14.27,3.5-22.67a3.13,3.13,0,0,1,.47-2.5c3.43-5.19,7.44-10.07,10.37-15.52,5-9.26,7.56-19.3,5.58-29.85-1.22-6.48.88-10.93,5.77-15,7.46-6.24,10.84-14.52,10.42-24.31-.5-11.87-8.62-22.87-19.43-26.66-13-4.58-26.31-.33-33.48,8.81-4.29,5.47-9.6,7.18-16,6.08s-12.75-.25-19,1.4c-10.13,2.69-18.72,8.07-26.35,15.37C1005.21,427.8,996.44,430.67,989.65,437.2ZM936.17,671.62q-33.84-33.87-67.64-67.77c-3.53-3.54-7-7.17-10.61-10.6-10.93-10.34-5.43-23.54,2.88-29.15,12.69-8.59,25.32-17.27,38.13-25.68,20.42-13.41,40.43-27.34,58.56-43.81a447.2,447.2,0,0,0,41.38-43.36,16.66,16.66,0,0,1,2.81-2.82,4.86,4.86,0,0,1,6.41.2,27.6,27.6,0,0,1,2.41,2.17q34,34,68.06,68.06c4.43,4.42,4.3,7.37-.53,11.36a401.15,401.15,0,0,0-55.89,56C1009.7,601.46,999,618,988.08,634.3c-7.64,11.42-15.24,22.87-23,34.22a20.11,20.11,0,0,1-15.37,9.07A18.39,18.39,0,0,1,936.17,671.62ZM1027,444c9.74-7.06,20.08-12.62,32.76-11.51,7.85.69,15.33-.15,21.87-4.91a36.76,36.76,0,0,0,5.75-5.48c5.17-5.81,10.78-7.51,17.1-5,9.21,3.7,11.39,16,3.93,22.9-3.48,3.23-7,6.32-9.22,10.68-3,6.05-3.19,12.41-2.58,19,1.17,12.61-3,23.35-11.64,32.31Z"/><path class="cls-2" d="M992,489c1.25.65,3.38,1.32,4.91,2.67,3.3,2.91,6.34,6.12,9.37,9.31a7.92,7.92,0,0,1,0,11.22,7.68,7.68,0,0,1-11.15.47c-3.48-3.2-6.81-6.58-10-10.07a7.46,7.46,0,0,1-1.15-8.8C985.36,490.73,988,489.51,992,489Z"/><path class="cls-2" d="M954.17,560.08c-.32,4.49-1.93,7-5,8.37-2.87,1.34-5.74,1.24-8.12-1-3.59-3.34-7.19-6.7-10.45-10.35a7.86,7.86,0,0,1,.49-11.22c3.46-3.12,8-3.07,11.43.28,3.12,3,6.27,6,9.11,9.23C953,556.94,953.64,559.07,954.17,560.08Z"/><path class="cls-2" d="M918.36,597.07c-1.66-.83-3.59-1.35-4.91-2.55-3.46-3.12-6.73-6.46-9.93-9.86a8,8,0,0,1,.09-11.07c3.08-3.16,7.68-3.59,11-.6A144.42,144.42,0,0,1,925,583.44c2.2,2.44,2.28,5.52.91,8.44S922,596.5,918.36,597.07Z"/><path class="cls-2" d="M964.2,515.91c1.85,1,4,1.64,5.49,3,3.3,2.93,6.34,6.15,9.38,9.35a8,8,0,0,1,0,11.06c-3.08,3.3-7.55,3.79-10.91.76-3.7-3.34-7.19-6.94-10.56-10.63-2.24-2.45-2.2-5.49-.91-8.44C957.92,518.24,960.84,516.49,964.2,515.91Z"/><path class="cls-2" d="M148.63,759.26c-6.47,5.17-10.88,12.07-15.24,18.93-11.2,17.63-21.13,35.92-28.85,55.37-7.5,18.92-13.05,38.32-14.93,58.65-1.62,17.42-.64,34.57,6.2,50.94,9.2,22,25.88,35,49.08,39.78,14.56,3,29.12,2.06,43.6-.81,20.7-4.11,40-12,58.48-22a326.55,326.55,0,0,0,58.1-40.29c11.48-9.88,18.34-22.14,19.13-37.47a41,41,0,0,0-6.54-24.78l2-2.26q20.73-23.21,41.46-46.42a17.58,17.58,0,0,0,2.09-2.78c2.62-4.5,1.31-9.11-3.24-11.62-3.32-1.83-7.24-.83-10.42,2.72q-20.93,23.38-41.81,46.78l-2,2.22c-.53-.22-.92-.35-1.27-.54-9.82-5.33-20.14-6.14-30.87-3.47-9.21,2.29-18.49,3.13-27.87,1.06-9.92-2.18-17.65-7.3-22.3-16.61-4.79-9.56-5.87-19.72-4.65-30.11s1-20.57-4.51-30c-.91-1.55-1.89-3.06-2.87-4.66l1.92-2.15,33.48-37.46c3.11-3.48,6.3-6.89,9.29-10.47A8,8,0,0,0,252.42,699c-4.09-1.42-7.08.4-9.68,3.31q-20.91,23.38-41.81,46.78l-2,2.19C180.25,743.39,163.76,747.15,148.63,759.26Zm54.3,30.16c-1,8.81-1.43,17.58,0,26.37,2,12.28,6.61,23.33,15.92,31.89,8.09,7.44,17.93,11.13,28.73,12.54,10.55,1.38,20.87.07,31.15-2.3,17.69-4.06,31.41,8.57,28.94,26.56-1.3,9.42-6,17-13.14,23a346.31,346.31,0,0,1-37.24,27.63c-16.74,10.67-34.26,19.76-53.13,26-16.78,5.56-33.91,8.88-51.69,6.58-11.28-1.47-21.47-5.59-29.64-13.1-11.06-10.89-15.6-24.17-17.09-38.77-1.42-13.89.09-27.58,3-41.15A227.12,227.12,0,0,1,122.45,833a335.68,335.68,0,0,1,21.64-41.29A144.74,144.74,0,0,1,153.15,778c7.87-10.17,18-16.15,31.28-14.22"/><path class="cls-2" d="M170.7,847.29a27.78,27.78,0,0,0-23.1,9.65c-5.24,5.93-7.23,13.35-7.88,21.11-1.25,14.82,1.76,29.07,5.8,43.2,1.1,3.86,3,7,7.13,7.8,14.69,2.86,29.47,4.32,44.37,1.74,8.34-1.44,16.11-4.34,21.86-10.86a28.83,28.83,0,0,0-21.16-47.75C195,857.59,184.59,848,170.7,847.29Zm-14.64,31.09c.49-5,1.76-9.84,6.4-12.88,3.92-2.57,9.68-2.64,13.39,0,4.44,3.09,6.38,7.38,5.43,12.72-.58,3.27-1.12,6.44,1.32,9.19,2.89,3.25,6.42,3.35,10.26,2,8.9-3,17.11,3.13,16.67,12.5-.22,4.64-2.55,8.24-6.74,9.91a51,51,0,0,1-12.87,3.35,103.23,103.23,0,0,1-15.93.25c-4.47-.18-8.92-.92-13.53-1.42C157.3,902.13,154.89,890.46,156.06,878.38Z"/><path class="cls-2" d="M526.34,166.22c-3.05,3.63-6.14,7.22-9.13,10.9-11.05,13.56-22.38,26.9-33,40.77C465.74,242,448,266.54,433.81,293.46c-5.32,10.09-10,20.44-13.12,31.45-1,3.6-.28,6.82,2.84,9.14,8.22,6.12,16.43,12.26,24.75,18.25,5,3.6,8.13,2.95,11.36-2.23a304.45,304.45,0,0,1,25.46-35.19c7.21-8.56,15-16.53,24.35-22.73,3.35-2.22,7-3.85,11.13-3.76,1.23,4.05.66,8-.47,11.86-3.76,12.95-10.52,24.45-18.18,35.34-6.89,9.8-14.55,19.06-22,28.45-4.11,5.19-3.83,8.88,1.49,12.84q11.63,8.65,23.32,17.23c3.49,2.56,6.79,2.84,10.17.42,5.4-3.86,10.87-7.69,15.86-12a285.48,285.48,0,0,0,38.72-41.59c14.25-18.56,28-37.5,41.7-56.48,6-8.3,11.26-17.11,16.86-25.69l8-12.4c.09,1.53.12,2.35.2,3.17q2.1,20.13,4.23,40.27c.59,5.57,3.16,8.11,8.77,8.67,7.62.77,15.24,1.55,22.87,2.25,4.85.45,7.84-1.53,9.69-6.08a148.31,148.31,0,0,0,9.25-37.18c4-31,.87-61.5-5.26-91.88a9.73,9.73,0,0,0-4-6.11c-5.71-4.18-11.45-8.34-17.07-12.64-3.93-3-7.68-3.29-12.27-1.14-8,3.74-16.16,7-24.4,10.14-3.42,1.28-7.2,1.59-10.88,2.36-.5-1.75-.9-2.85-1.11-4a23.73,23.73,0,0,1-.35-3.46,134.85,134.85,0,0,1,2.44-31.06,9.47,9.47,0,0,0-4-10.22c-6-4.4-11.82-9-18-13.12a11.61,11.61,0,0,0-7-1.93c-24.71,2.32-49,6.67-72.47,15.05-17.74,6.34-34.5,14.49-49.35,26.26-4.24,3.36-5.13,6.58-3,11.63q4.31,10.38,8.66,20.74c2.32,5.54,5.29,7.13,11.22,6q19.74-3.84,39.49-7.72c.8-.16,1.58-.41,2.37-.62ZM656.18,282.61c-1-8.95-1.92-17.72-2.85-26.49q-1.8-16.91-3.55-33.81c-.32-3.12-1.25-5.84-4.09-7.59-3.83-2.37-8.67-1.16-11.25,2.95-3.84,6.14-7.57,12.35-11.42,18.48-4.75,7.54-9.35,15.18-14.39,22.53-11.58,16.9-23,33.91-35.22,50.38-9.75,13.18-20.32,25.76-30.84,38.34a195.09,195.09,0,0,1-30.31,29.18c-.65.5-1.31,1-1.94,1.45l-12.64-9.34c4-5.76,8-11.36,11.85-17.08,10.07-15,19.7-30.33,25.24-47.7a68.6,68.6,0,0,0,2.81-16.13c.77-11.5-10.22-18.38-20.4-15.46-9.69,2.77-17.7,8.34-25.17,14.79-13.74,11.86-25.37,25.65-36.38,40-1.67,2.17-3.26,4.4-5,6.74l-13-9.58c2.14-5,4.17-10.38,6.62-15.51,13.36-27.88,31.44-52.73,50.06-77.19,9.28-12.2,18.88-24.15,28.66-36s19.73-23,29.58-34.51a20.48,20.48,0,0,0,3.83-5.48c2.21-5.77-3.06-11.63-9.29-10.43-17.59,3.38-35.16,6.84-52.75,10.27l-8.27,1.59-5-12c7.45-4.2,14.62-8.74,22.2-12.42,20.4-9.91,42.08-15.73,64.43-19.15,6.18-1,12.38-1.72,18.59-2.4A5.91,5.91,0,0,1,590,112c3.38,2.29,6.56,4.87,9.91,7.2a3.06,3.06,0,0,1,1.35,3.33c-.75,8.28-1.8,16.57-1.87,24.86,0,5,1.59,10,2.3,15a5,5,0,0,1-.72,3.3c-8.7,11.91-17.51,23.74-26.25,35.63-3.49,4.75-2.18,10.35,2.88,12.82,3.67,1.78,7.74.41,10.8-3.72q12.81-17.28,25.53-34.61a4.56,4.56,0,0,1,4.33-2c8.48.12,16.43-2.39,24.21-5.47,4.32-1.72,8.57-3.65,12.78-5.66a3.07,3.07,0,0,1,3.79.29c3.26,2.58,6.7,5,10,7.5a3.94,3.94,0,0,1,1.48,2.11c5.83,28.93,8.44,58,3.83,87.41-1.25,8-3.51,15.84-5.34,23.91Z"/><path class="cls-2" d="M970.11,1166.62a109.43,109.43,0,0,0-77.36,119.67,106.31,106.31,0,0,0,13.59,39.61c.79,1.34.56,2.11-.39,3.21q-22.74,26.43-45.37,53a2.84,2.84,0,0,1-2.92,1.16,36.8,36.8,0,0,0-41.71,39.9c2,20.32,21.15,35.78,41.36,32.87A36.72,36.72,0,0,0,889,1415.5a4,4,0,0,1,1.65-4q26-22.08,51.88-44.3c1.94-1.68,3.18-1.67,5.32-.52,28.38,15.3,58,18,88.52,7.75a108.22,108.22,0,0,0,73.16-96.34c1.54-29.26-6.72-55.49-26-77.77-22.39-25.82-51-38.06-82.37-38.25C988.78,1162.57,979.35,1163.91,970.11,1166.62Zm88.27,177.2c-6.28,4.17-12.8,8-19.3,11.83a3.23,3.23,0,0,1-2.84-.17,45,45,0,0,0-24.85-7.87,23.56,23.56,0,0,1-22.78-23c-.34-15.43-6.88-27.35-20-35.5a36.17,36.17,0,0,0-18.69-5.49c-7.59-.14-14.22-2.3-19.45-8-4.44-4.87-6.05-10.74-6.28-17.17a39,39,0,0,0-7.84-22.74,2,2,0,0,1-.27-1.71c5.65-9.9,11.1-19.94,19.08-28.26a7.49,7.49,0,0,1,.92-.69c4.49,4.22,7.39,9.17,8.07,15.33.57,5.19.7,10.5,1.86,15.56,3.33,14.51,13.11,22.7,27.19,26.07a65.59,65.59,0,0,0,12.35,1.53,23.92,23.92,0,0,1,23,23.13,45.7,45.7,0,0,0,8.24,25.51c7.16,10.24,17.42,14.91,29.64,15.36,6.42.24,12.37,1.41,17.48,5.53a19.88,19.88,0,0,1,1.69,1.48c.45.46.83,1,1.51,1.84C1064.17,1338.91,1061.52,1341.73,1058.38,1343.82ZM980.25,1181c.26,2.62.57,5.14.75,7.67,1.09,15.82,8.91,27.2,22.85,34.44a36,36,0,0,0,16.62,3.91c14.88,0,24.65,12,24.74,24.64a40,40,0,0,0,38.25,39.51c2.54.1,5.06.48,7.69.74-2.81,11.46-7,21.77-13.62,31.23-2.21-1.74-4.26-3.51-6.48-5-7-4.78-14.82-6.48-23.1-6.88-9.46-.45-15.58-5.85-19.91-13.79-2.55-4.67-2.82-9.8-3.44-14.93a40.25,40.25,0,0,0-39.47-35.43,51,51,0,0,1-8.2-.62c-9.44-1.66-15.11-8.41-15.88-18.46-.49-6.36-.35-12.8-2.84-18.89a43,43,0,0,0-9.49-14.56A95.07,95.07,0,0,1,980.25,1181Zm112.64,94.58c-7.89-.69-16-.31-22.62-6a23.66,23.66,0,0,1-8.73-16.25c-.53-5.7-.53-11.47-2.89-16.87-6.54-15-17.61-23.91-34.09-25.47-6.25-.59-12.42-1-17.7-5a24.3,24.3,0,0,1-9.7-17.31c-.35-3.21-.4-6.46-.58-9.67C1041.75,1172.65,1097.54,1217.21,1092.89,1275.59Zm-175,10.24c7.24,8.36,16.37,12.81,27.29,13.86,3.55.35,7.19.52,10.58,1.49,9.35,2.68,16.14,11.86,16.39,21.6.45,17.3,8.22,30,23.82,37.66,3.31,1.62,7,2.37,10.27,3.42-11.59,2.75-43.13-2.89-64.83-21.16a93.69,93.69,0,0,1-33.07-78.28A40.91,40.91,0,0,0,917.85,1285.83Zm-45,134c-.19,12.26-9.33,20-20.49,20.16s-20.45-9.52-20.23-20.5,8.4-19.91,20.45-20.34C865.06,1399.81,873,1408.47,872.84,1419.78Zm2.34-29.83,41.48-48c4.61,4.68,9.2,9.32,13.88,14.06l-48.32,41.19Z"/><path class="cls-2" d="M501.76,1112.8c-6.46,16.61.77,36.66,16.38,45,10.24,5.49,20.9,6.3,31.77,1.89,1.46-.59,2.21-.42,3.35.82,5.16,5.63,10.23,11.41,15.88,16.53a146.11,146.11,0,0,0,34.39,23.34c1.92.92,2.24,1.82,1.94,3.75-3,19.27,10.54,37.88,29.68,41.17,19.51,3.35,38.43-8.87,42.37-28.31.35-1.75,1.22-2.2,2.83-2.39a102.11,102.11,0,0,0,43.7-15.3,90,90,0,0,0,21.76-19.63c3-3.71,2.88-7.18-.15-10.85-.89-1.08-1.9-2-2.94-3.17.56-.47,1-.91,1.56-1.31,8.27-6.43,16.52-12.9,24.88-19.22a6.08,6.08,0,0,1,4-1.1c11,1.29,22,2.74,33,4.15,2.65.34,5.19.16,7.28-1.7,2.5-2.22,3.64-5.07,2.69-8.32a7.86,7.86,0,0,0-6.88-6q-19.46-2.49-38.9-5a9.89,9.89,0,0,0-7.66,2.29q-8.35,6.52-16.75,13l-16.66,12.87L650.41,1093l2-2.5,53.93-68.27c.42-.52.85-1,1.24-1.57,3.86-5.36,3.43-8.87-1.93-12.7-3.78-2.71-7.78-5.12-11.76-7.54a140,140,0,0,0-54.64-19.32c-20.27-2.69-40.15-1-59.13,7-28.58,11.94-47.34,32.83-55.6,62.83-3.68,13.34-4.24,26.93-2.46,40.9A36.83,36.83,0,0,0,501.76,1112.8Zm69.47-74.7c2.57,2,5.39,2,8.24.7a7.61,7.61,0,0,0,4.55-6.66,6.85,6.85,0,0,0-2.36-6.28c-3.78-3.13-7.61-6.2-11.43-9.3-.89-.72-1.8-1.43-3.22-2.55,3.75-2.39,7.18-4.48,10.49-6.74,2.19-1.5,3.79-1.23,5.87.46,8.12,6.64,16.41,13.1,24.67,19.57,3.82,3,7.8,3.1,11,.5a8.23,8.23,0,0,0-.22-12.66c-5.91-4.74-11.88-9.41-17.83-14.11l-1.9-1.5.25-.67c32.5-6.88,62.16.85,90.37,17.93l-2,2.5-54.54,69c-4,5-3.44,9.34,1.59,13.31l90.61,71.59,2.5,2c-14.27,14-31.42,21-50.17,23.25-2.62-4.4-4.58-9-7.7-12.67-11.82-13.8-28.68-18.13-45.54-8.76-3.86,2.14-7.14,5.36-10.55,8.23-1,.86-1.69,1.32-3,.67a137.84,137.84,0,0,1-45.37-36.09c-.2-.25-.36-.54-.56-.84,7.75-11.94,11.62-24.64,5.15-38.19-6.26-13.12-17.17-20.37-32-21.91-3.29-23.4,2.48-44.35,17.13-63.41C560.79,1029.86,566,1034,571.23,1038.1ZM523.4,1141.73a20.75,20.75,0,0,1-3.34-28.66c6.71-8.7,20.1-10.29,28.84-3.43a20.49,20.49,0,0,1-25.5,32.09Zm105.9,83.67a20.74,20.74,0,0,1-3.69-29c6.76-8.69,20.24-10.4,28.82-3.36a20.5,20.5,0,0,1,2.91,29.2C650.86,1230.55,637.78,1232,629.3,1225.4Z"/><path class="cls-2" d="M266.56,1303.23c19,19,38.21,37.93,57.06,57.15,11.9,12.14,29.75,11.49,40.64-.06,5.94-6.31,12.2-12.31,18.35-18.41,5.57-5.52,8.82-12.06,8.91-20,.09-8.22-3.28-15-9-20.69q-28.08-28-56.14-55.93a17.43,17.43,0,0,0-2.59-1.76c5.31-5.52,10.12-10.36,14.76-15.36,11.9-12.82,15.44-27.61,9.92-44.3-1.18-3.58-3.14-6.9-4.61-10.09l12.24-12.2c7,7,14.11,14.13,21.24,21.25a18.23,18.23,0,0,0,2.2,2,8.32,8.32,0,0,0,9.2.54c2.87-1.46,3.92-4.06,3.89-7.26,0-2.79-1.54-4.66-3.34-6.45L333.6,1116a15.78,15.78,0,0,0-1.47-1.36,8.24,8.24,0,0,0-9.34-.58,7.52,7.52,0,0,0-3.68,8.52,13.1,13.1,0,0,0,3.15,5.23c6.61,6.82,13.39,13.48,20.1,20.2.57.57,1.1,1.18,1.48,1.59L331.52,1162a1,1,0,0,1-.28-.12c-.5-.3-1-.62-1.48-.92-15-8.84-30.2-9.29-45,.16-4.78,3-8.67,7.48-12.92,11.34-3.18,2.89-6.27,5.88-9.65,9.06-.76-.9-1.3-1.65-1.94-2.3q-28.62-28.65-57.27-57.27c-9.9-9.87-26.78-10.35-37-.83-7.11,6.66-13.72,13.86-20.84,20.51-11.62,10.88-11.14,29.58,0,40.38,19.42,18.87,38.37,38.23,57.51,57.38.64.63,1.23,1.3,1.66,1.75l-46.69,54.74c-5.37-5.29-11-10.8-16.63-16.4-5-5-9.51-5.09-14.46-.15l-24.39,24.4c-4.7,4.7-4.72,9.14,0,13.87q11,11.07,22.11,22.09a11.58,11.58,0,0,0,2.18,1.4c-1.56,2.91-2.75,5.1-3.92,7.3-3.91,7.38-7.39,14.91-8.75,23.24-2,12.22,6.22,21.31,18.45,20.46,6.51-.46,12.47-2.79,18.27-5.52,4.65-2.19,9.17-4.63,13.72-6.94,8.1,8.07,16.12,16.07,24.16,24.06,4,4,9.32,4,13.3.06q12.66-12.62,25.25-25.3,6.39-6.44,0-12.86c-5.21-5.28-10.47-10.51-15.7-15.77-.56-.57-1.08-1.19-1.45-1.59l55.14-47A21.2,21.2,0,0,0,266.56,1303.23ZM132.5,1364c5.5-12.1,12.77-23.17,20.44-34,17.5-24.6,36.77-47.77,56.93-70.22,5.07-5.64,10.15-11.25,15.44-17.11,2.58,2.53,5.06,4.93,7.51,7.37a8.19,8.19,0,0,0,7.45,2.6,7.76,7.76,0,0,0,6.46-5.55,8.16,8.16,0,0,0-2.17-8.49c-2.51-2.67-5.11-5.26-7.86-8.09l10.1-9c5.75,5.89,12.08,12.4,18.43,18.89,2.43,2.48,5.24,3.71,8.79,2.54,5.62-1.84,7.7-8.49,3.65-12.86-5.65-6.1-11.64-11.91-17.51-17.82-.87-.88-1.89-1.62-2.94-2.52.7-.8,1.08-1.31,1.54-1.76,10-9.76,20.19-19.38,30.06-29.3,8.07-8.11,21.46-9.49,31.5-4.42a26.9,26.9,0,0,1,14.1,27.3,25.83,25.83,0,0,1-7.64,15.37c-23.48,22.93-46.55,46.28-70.5,68.71-25,23.46-51.06,45.86-79.13,65.73-11.22,8-22.68,15.51-35.2,21.3-3.66,1.69-7.35,3.56-11.92,3.17C129.23,1371.46,130.83,1367.67,132.5,1364Zm81.3-136.65q-28.31-28.23-56.6-56.47c-6.09-6.08-6.1-12.13,0-18.23s12.12-12.13,18.22-18.17c5.27-5.21,11.81-5.31,17-.12q28.84,28.76,57.6,57.59c.23.23.44.49.84.94l-35.14,36.26C215,1228.47,214.38,1227.93,213.8,1227.35Zm98.93,27.43c.64.6,1.25,1.12,1.82,1.69l56.17,56.16c5.95,6,5.93,12,0,18s-12.08,12.18-18.15,18.24c-5.46,5.45-11.9,5.44-17.37,0q-28.64-28.59-57.23-57.22c-.47-.47-.91-1-1.58-1.67ZM178.58,1370.56,196.13,1358l13.59,13.57-14.88,14.9Zm-44.87-74.7,13.48,13.92c-3.8,5.34-8,11.25-12.13,17l-16.14-16.15Z"/><path class="cls-2" d="M224.49,107.29c19.21,4.57,35.42-11.52,31-30.72-2.78-12-14.13-21.65-26.6-22.43-8.66-.54-16.08,2.17-21.7,9a7.21,7.21,0,0,0,1.44,10.72c3.31,2.4,7,1.94,10.25-1.53A10.46,10.46,0,0,1,228.11,69a14.94,14.94,0,0,1,12.83,11c2,7-2.79,13.24-10.08,13.15a13.45,13.45,0,0,1-8.9-3.3,7.67,7.67,0,0,0-11.22,1.4c-2.75,3.56-5.66,7-8.38,10.58a3.7,3.7,0,0,1-3.81,1.53Q140,97.7,81.41,92.2c-3.81-.36-7.63-.86-11.45-.93A14.56,14.56,0,0,0,55.38,104.6c-.49,5.81,2,10.13,6.5,13.77q81.66,66.8,163.21,133.7c.64.53,1.3,1,2,1.54A13.77,13.77,0,0,0,238.87,256c8.88-2,13.42-10.53,10.65-19.84q-6.59-22-13.27-44-11.69-38.74-23.34-77.5a3.56,3.56,0,0,1,.2-2.7c1.64-2.29,3.52-4.41,5.28-6.56C220.54,106.09,222.49,106.81,224.49,107.29Zm-154-.89.08-.5,127.83,12.34q18.51,61.43,37,122.68l-.45.24Z"/><path class="cls-2" d="M1025.87,920.51c19.21,4.57,35.42-11.51,31-30.72-2.78-12-14.12-21.65-26.6-22.43-8.66-.54-16.07,2.17-21.7,9a7.2,7.2,0,0,0,1.45,10.72c3.3,2.4,7,2,10.24-1.52a10.49,10.49,0,0,1,9.25-3.29,15,15,0,0,1,12.83,11c2,7-2.79,13.25-10.08,13.16a13.43,13.43,0,0,1-8.9-3.31,7.68,7.68,0,0,0-11.22,1.41c-2.75,3.55-5.66,7-8.37,10.57a3.72,3.72,0,0,1-3.82,1.53q-58.56-5.62-117.14-11.14c-3.81-.36-7.63-.86-11.45-.92a14.55,14.55,0,0,0-14.58,13.33c-.48,5.8,2,10.12,6.5,13.77q81.66,66.78,163.21,133.69c.64.53,1.3,1,2,1.55a13.81,13.81,0,0,0,11.81,2.43c8.89-2,13.42-10.53,10.65-19.84-4.38-14.68-8.84-29.34-13.27-44q-11.69-38.74-23.34-77.51a3.56,3.56,0,0,1,.2-2.7c1.64-2.29,3.52-4.41,5.28-6.56C1021.92,919.32,1023.87,920,1025.87,920.51Zm-154-.89.08-.49,127.83,12.33q18.51,61.44,37,122.68l-.45.24Z"/><path class="cls-2" d="M335,504.23c-6.34-20.63-13.1-41.13-19.22-61.82-4-13.59-13.34-16.59-23.57-13.33C273,435.22,253.71,441,234.44,447c-4,1.23-8,2.27-11.12,5.34A16.73,16.73,0,0,0,221,472.54c4.8,8.56,9.39,17.22,14.18,25.77,1,1.8.75,2.59-1.17,3.27-3.13,1.1-6.16,2.47-9.28,3.62-15.25,5.63-25.41,16-28.67,32.1-2.9,14.33.8,27.13,11.11,37.63a41.08,41.08,0,0,0,25.68,12.48c7.19.76,14.15.27,20.45-2.91,21.64-11,43.23-22,64.55-33.61,13-7,18.9-18.89,19.79-35.13C337,512.94,336.34,508.49,335,504.23Zm-15.16-10.32c-11.87,3-20.71,9.56-25,21.2s-1.87,22.22,5.63,32.07c-1,.59-1.72,1.09-2.51,1.5q-22.35,11.61-44.71,23.21c-8,4.15-16.3,6-25,3.17a30.66,30.66,0,0,1-21.74-28.42c-.49-12.08,6.13-23.71,17-28.48,9-3.92,18.18-7.33,27.28-11,.44-.18.87-.42,1.65-.81l-13.13-24.07,70.44-20.26ZM233.48,459.5c7-2.2,13.9-4.44,20.87-6.61q21.5-6.7,43-13.34c3.42-1.05,5.39,0,6.48,3.4.64,2,1.3,3.94,1.94,5.91.46,1.44.06,2.3-1.52,2.77q-34.14,10-68.26,20.19c-1.67.5-2.47.12-3.15-1.29-1.08-2.22-2.21-4.41-3.1-6.18C230.1,461.51,231.37,460.17,233.48,459.5Zm79.71,81c-1.51,1-2.44.65-3.51-.68-10.89-13.55-3.86-30.44,10.29-35.46,2.69-.95,3.16-.7,3.84,2,.91,3.67,1.71,7.37,2.22,9.55C325.61,527.44,321.43,535.09,313.19,540.53Z"/><path class="cls-2" d="M109.28,428.75c-5.75,2.38-11.84,4.17-17.2,7.23a41.93,41.93,0,0,0-2.79,71.43c13,8.86,27.22,10.28,41.39,3.23,20.91-10.39,41.58-21.29,62.19-32.28a37.89,37.89,0,0,0,18.6-44.26c-6.61-22.11-13.86-44-20.61-66.11-3.25-10.63-13.17-14.91-22.56-12-20.14,6.25-40.24,12.64-60.45,18.64-11.61,3.45-16.33,15.19-11.22,24.81q1.17,2.21,2.35,4.39l12.89,23.79C110.77,428.11,110,428.44,109.28,428.75ZM115,409.3c4.93-1.44,9.53-2.8,14.13-4.13l40.23-11.52c4.78-1.38,9.59-2.7,14.36-4.14,1.42-.43,1.93.11,2.32,1.37q4.38,14,8.85,28c.5,1.54.18,2.23-1.42,2.66-11.94,3.18-19.95,10.64-23.64,22.44-3,9.55-1.34,18.57,4,26.95.62,1,1.35,1.88,2.2,3.05a21,21,0,0,1-1.87,1.22c-15.46,8.11-30.9,16.25-46.39,24.3-13.88,7.2-29.65,3.55-38.65-7.51-13.35-16.4-6.86-40.48,13-48.3,7.88-3.11,15.82-6.06,23.73-9.09.68-.26,1.32-.63,2.28-1.1Zm46.81-25.13c-16.57,5.11-33.15,10.18-49.7,15.35-1.6.5-2.45.29-3.13-1.24-.61-1.36-1.47-2.61-2.13-3.95-1.83-3.71-.57-7,3.41-8.3,12.09-3.86,24.23-7.61,36.36-11.38,8.16-2.54,16.34-5,24.5-7.58,4.76-1.49,7.31-.28,8.86,4.38.67,2,1.23,4.1,1.95,6.49Zm35.49,48.31a2.52,2.52,0,0,1,2.12,1.17c5.14,13,.58,26.58-10.56,33.9-1.14.75-2.2,1.22-3.24-.14-3.25-4.24-5.54-8.85-5.68-13.54C180.09,442.63,187.13,434.2,197.28,432.48Z"/><path class="cls-2" d="M544,592.89c-16.66-23.53-48.23-29.76-71.87-13.89-17.7,11.87-25.51,28.91-23.52,49.93,1.53,16.14,9.81,28.76,23.22,37.9,1.23.84,2,1.48,1.39,3.14a113.14,113.14,0,0,0-5,26.39,87.31,87.31,0,0,0,6.49,41.25c9.13,22,25,38,46.05,48.65,32.68,16.43,66.77,18.43,101.63,8.16,20.7-6.09,38.56-17,52.26-33.84,17.11-21,23.39-45.23,19.41-72-1-6.88-2.78-13.64-4.23-20.56,19.6-13.55,28.86-32.29,23.72-56.19-4.64-21.59-18.72-35.65-40.39-40.22-23.49-5-42,4.1-55.89,23.63a108.85,108.85,0,0,0-71.54.07C545.06,594.37,544.54,593.63,544,592.89ZM523.2,771.73c-18.58-10.78-31.89-26-38.15-46.85a78.31,78.31,0,0,1-1.45-38.76c7.26-35.54,27.55-60.79,60.69-75.32a89.53,89.53,0,0,1,52.54-6.21c35,6.26,59.94,26,75.19,57.84A90.12,90.12,0,0,1,680.78,711a74.57,74.57,0,0,1-23.53,47.77c-15.33,14.59-33.86,22.7-54.58,26-7,1.09-14,1.48-21.08,2.19C560.86,786.44,541.21,782.17,523.2,771.73Zm-44.68-116c-10.06-5.59-19-20.75-17.51-35.87,1.72-17.17,13.05-31,29-35.39,16.51-4.56,33,1.28,43.61,15.55L523,605.73c-6.11-7.13-13.78-11-23.35-10.65-7.73.26-14.08,3.45-19.39,9-9.05,9.44-11.9,28.2,3.63,41.41Q481.23,650.61,478.52,655.75Zm151.16-55.62c8.34-12.56,22.91-18.88,38.28-16.74,16.78,2.34,30.41,15.51,33.46,31.51,3.09,16.21-3.75,33-16.77,41q-2.73-5.25-5.46-10.47c15.15-12.8,13.5-32.19,2.18-42.87a28.11,28.11,0,0,0-41.29,3.26ZM651,612.67a15.24,15.24,0,1,1,21.34,21.69ZM501.16,623.36c-3.48,3.54-6.63,7.41-10.06,11.29-4.42-4-6.49-8.85-5.18-14.79,1.38-6.22,5.24-10.24,11.51-11.73,5.95-1.41,10.88.42,15,4.88C508.59,616.52,504.71,619.77,501.16,623.36Z"/><path class="cls-2" d="M584,780.66c28.92-1.35,51.58-24.39,51.59-53.32,0-32.22-24.7-55.56-55.4-54.83A54.11,54.11,0,1,0,584,780.66Zm37.57-53.9c.18,21.91-17.14,39.55-39.81,40-22,.43-40.18-17.8-40.31-40a40.24,40.24,0,0,1,40-40.3C602.85,686.87,621.39,702.69,621.58,726.76Z"/><path class="cls-2" d="M542,674.75a7.56,7.56,0,1,1-7.55-7.57A7.38,7.38,0,0,1,542,674.75Z"/><path class="cls-2" d="M628.66,682.3a7.56,7.56,0,1,1,7.69-7.52A7.59,7.59,0,0,1,628.66,682.3Z"/><path class="cls-2" d="M600.6,711.47a19.09,19.09,0,1,1-19.1-19A19.16,19.16,0,0,1,600.6,711.47Z"/><path class="cls-2" d="M939.39,320.65a67,67,0,0,0,15.34,8.67c14.38,5.56,28.71,4.76,42.57-2.21,13.16-6.62,22-17.54,28.29-30.32,11.15-22.74,4.35-49.45-15.77-64.93q-16.74-12.88-33.53-25.7c-3.71-2.84-7.46-5.62-11.1-8.53-4.18-3.34-4.51-8.26-.89-11.95,2-2,4.58-2.05,7.2-2.13,20.15-.63,36.32-8.82,47.61-25.74,15.85-23.76,12.31-53.9-8.47-73.46a57.13,57.13,0,0,0-62.21-10.89,3.35,3.35,0,0,1-4-.56Q936,66.27,927.38,59.81c-10.41-7.76-24.08-7.72-33.67.56-3.6,3.11-6.49,7.13-9.33,11-7.58,10.31-5.77,26.54,4.06,34.72,7.67,6.39,15.78,12.27,23.61,18.49a5.68,5.68,0,0,1,1.74,3.23c.81,4.49,1.12,9.09,2.15,13.52,2,8.7-4.81,15.47-13.41,13.2-14.86-3.94-28.91-1.83-42,6.09-10,6-16.86,15.06-22.58,24.88-6.77,11.61-8.43,24.22-5.62,37.38s10.16,23.55,20.71,31.7c14.38,11.11,28.83,22.12,43.25,33.16S924.86,309.89,939.39,320.65Zm-78-81A35.84,35.84,0,0,1,854,191c4-5.83,8.15-11.65,14.22-15.58a36,36,0,0,1,29.39-5c4.78,1.19,9.51,1.94,14.53.94,11.18-2.24,24.48-17.53,20.2-33-2.61-9.42-2.49-18.7,1.22-27.89C942.25,89,968.76,79,989.43,89.64c20.23,10.39,28.58,33.71,18.8,53.7-7.27,14.86-19.49,22.85-36.12,23.38-7.82.25-14.7,2.08-20.3,7.9a24.17,24.17,0,0,0-1,32.1,34.29,34.29,0,0,0,5.15,4.69c14.32,11,28.71,22,43,33,6.27,4.83,11.11,10.78,13.41,18.48,3.38,11.28,2,21.92-4.77,31.65-4.24,6.08-8.63,12-15,16.17-11.76,7.63-28.82,7.31-40-1.15C937.27,298,922,286.19,906.76,274.49h0C891.61,262.89,876.37,251.41,861.35,239.65ZM917.61,69.57c5.63,3.82,10.87,8.22,16.54,12.56-8.66,7.68-14.91,16.82-18.09,28.07a16.29,16.29,0,0,1-1.75-1q-7.65-5.83-15.28-11.7c-4.5-3.45-6.39-8-5.48-13.58a10.93,10.93,0,0,1,.44-1.68,6.69,6.69,0,0,1,.55-1c4.2,3.21,8.27,6.36,12.38,9.47,3.71,2.82,7.38,2.57,9.9-.63s1.87-7.28-1.7-10.06c-4.06-3.18-8.17-6.28-12.29-9.44A12.4,12.4,0,0,1,917.61,69.57Z"/><path class="cls-2" d="M922.71,271.71c-4-3.09-8.23-6-12.05-9.32a8,8,0,0,1,1.6-13.08c3.45-1.92,6.72-1.32,9.77,1,6.55,5,13,10.09,19.66,15a21.07,21.07,0,0,0,25.91-.56,33.76,33.76,0,0,0,3.88-3.87,8.23,8.23,0,0,1,11.61-1,8.32,8.32,0,0,1,1.28,11.43c-11.44,15.6-35.06,19.58-50.89,8.49-3.68-2.57-7.15-5.44-10.72-8.17Z"/><path class="cls-2" d="M982.2,132.69a11,11,0,1,1-1.82-15.37A11,11,0,0,1,982.2,132.69Z"/></pattern></defs><title>Asset 1</title><g id="Layer_2" data-name="Layer 2"><g id="Layer_1-2" data-name="Layer 1"><rect class="cls-3" width="1825.47" height="1014.38"/></g></g></svg>